<?xml version="1.0" encoding="utf-8"?>
<!-- Generator: Adobe Illustrator 23.0.3, SVG Export Plug-In . SVG Version: 6.00 Build 0)  -->
<svg version="1.1" id="Capa_1" xmlns="http://www.w3.org/2000/svg" xmlns:xlink="http://www.w3.org/1999/xlink" x="0px" y="0px"
	 viewBox="0 0 841.89 595.28" style="enable-background:new 0 0 841.89 595.28;" xml:space="preserve">
<style type="text/css">
	.st0{fill:#F29104;}
</style>
<path class="st0" d="M432.44,270.3c-1.12-2.03-2.53-2.8-3.52-3.47c-0.2-0.08-0.59-0.41-1.19-0.98c-0.6-0.57-1.22-1.16-1.87-1.77
	c-0.65-0.61-1.27-1.18-1.87-1.7c-0.6-0.53-0.99-0.83-1.19-0.91c-1.1-1.14-1.99-1.99-2.69-2.56c-0.7-0.57-1.3-1.65-1.82-3.25
	c-1.05-3.82-1.59-7.62-1.61-11.42c-0.02-3.79,0-7.59,0.08-11.38c0.07-3.8-0.12-7.58-0.58-11.37c-0.46-3.78-1.66-7.53-3.59-11.24
	c-1.61-2.38-3.29-4.29-5.02-5.73c-1.74-1.44-3.57-2.54-5.49-3.31c-1.92-0.77-3.91-1.29-5.97-1.56c-2.06-0.27-4.17-0.43-6.32-0.48
	c-4.99-0.35-9.51,0.18-13.54,1.6c-4.03,1.42-7.73,3.81-11.08,7.17c-1.68-0.77-3.26-1.63-4.74-2.59c-1.49-0.95-2.97-1.82-4.45-2.59
	c-1.48-0.78-3.03-1.35-4.65-1.72c-1.62-0.37-3.45-0.31-5.5,0.17c-2.05,0.4-3.84,1.1-5.39,2.11c-1.55,1.01-2.99,2.16-4.33,3.43
	c-1.75,0.48-3.39,0.38-4.92-0.31c-1.53-0.68-3.03-1.44-4.52-2.26c-1.48-0.82-2.99-1.55-4.52-2.19c-1.53-0.64-3.17-0.76-4.92-0.38
	c-0.88,0.2-2.02,0.62-3.42,1.27c-1.41,0.65-2.78,1.51-4.13,2.56c-1.35,1.05-2.47,2.32-3.38,3.81c-0.9,1.49-1.33,3.17-1.3,5.04
	c0.19,4.82,0.32,8.9,0.38,12.24c0.06,3.35,0.07,6.18,0.01,8.5c-0.05,2.32-0.14,4.27-0.26,5.83c-0.12,1.56-0.26,2.93-0.44,4.09
	c-0.18,1.16-0.35,2.26-0.52,3.29c-0.18,1.03-0.3,2.21-0.37,3.56c0.01,0.53-0.15,1.43-0.46,2.69c-0.32,1.26-0.68,2.58-1.1,3.97
	c-0.41,1.39-0.83,2.72-1.24,3.97c-0.42,1.26-0.72,2.16-0.9,2.69c-0.56,1.35-1.29,2.57-2.2,3.66c-0.91,1.09-1.74,2.18-2.51,3.26
	c-0.76,1.09-1.35,2.23-1.77,3.45c-0.42,1.21-0.41,2.62,0.01,4.22c0.32,1.16,0.89,1.97,1.73,2.44c0.84,0.48,1.75,0.72,2.73,0.75
	c0.98,0.03,2.03-0.06,3.15-0.26c1.12-0.2,2.12-0.4,3-0.59c3.31-0.87,5.84-2.39,7.61-4.56c1.77-2.18,3.04-4.65,3.82-7.44
	c0.78-2.78,1.26-5.71,1.45-8.8c0.19-3.08,0.35-5.96,0.5-8.64c0.15-2.15,0.43-4.31,0.83-6.51c0.4-2.19,0.75-4.39,1.05-6.58
	c0.3-2.19,0.45-4.43,0.46-6.7c0.01-2.28-0.31-4.52-0.93-6.74c1.83-1.46,3.73-1.9,5.69-1.31c-0.41,4.29-0.35,8.53,0.17,12.72
	c0.52,4.19,1.36,8.41,2.51,12.67c1.03,2.84,1.92,5.65,2.65,8.45c0.74,2.8,1.47,5.62,2.21,8.46c0.21,0.62,0.63,1.3,1.29,2.05
	c0.65,0.75,1.42,1.44,2.31,2.1c0.89,0.65,1.86,1.15,2.89,1.48c1.03,0.34,1.99,0.41,2.86,0.21c2.63-0.67,4.42-1.58,5.38-2.71
	c0.95-1.13,1.42-2.44,1.39-3.91c-0.03-1.47-0.35-3.03-0.97-4.67c-0.62-1.64-1.09-3.26-1.41-4.86c-0.11-0.53-0.35-1.47-0.71-2.8
	c-0.37-1.33-0.79-2.77-1.26-4.33c-0.47-1.55-0.91-3-1.33-4.33c-0.42-1.33-0.68-2.26-0.79-2.8c-0.22-1.34-0.38-3.29-0.48-5.88
	c-0.1-2.59-0.03-5.2,0.22-7.84c0.24-2.64,0.71-4.99,1.41-7.06c0.69-2.07,1.72-3.29,3.08-3.67c2.82-0.68,5.25-0.21,7.29,1.4
	c2.03,1.61,3.79,3.63,5.25,6.06c1.46,2.43,2.68,4.88,3.66,7.36c0.98,2.48,1.82,4.3,2.52,5.44l8.95,30.89
	c0.32,1.15,0.77,2.02,1.37,2.58c0.6,0.57,1.29,0.96,2.08,1.17c0.79,0.21,1.62,0.26,2.5,0.15c0.88-0.1,1.75-0.25,2.63-0.45
	c0.68-0.19,1.41-0.52,2.18-0.98c0.77-0.46,1.45-0.99,2.02-1.58c0.58-0.59,1-1.27,1.28-2.03c0.28-0.76,0.31-1.55,0.1-2.34
	l-11.61-39.95c-0.31-1.15-0.14-2.38,0.52-3.69c0.66-1.31,1.57-2.53,2.72-3.67c1.15-1.14,2.35-2.14,3.61-3.01
	c1.25-0.87,2.32-1.4,3.2-1.6c2.33-0.58,4.39-0.55,6.16,0.09c1.77,0.64,3.28,1.59,4.53,2.86c1.25,1.27,2.28,2.72,3.09,4.36
	c0.81,1.64,1.43,3.17,1.85,4.58c0.63,2.31,0.92,4.69,0.87,7.15c-0.05,2.46-0.17,5.02-0.37,7.7c-0.19,2.68-0.26,5.47-0.21,8.37
	c0.06,2.9,0.5,5.86,1.34,8.88c2.93,10.03,8.05,17.12,15.36,21.26c3.09,1.75,6.48,2.87,10.15,3.41c2.05,0.3,3.9-5.23,3.78-7.31
	L432.44,270.3z"/>
</svg>
